M48
; DRILL file KiCad 10.0.4 date 2026-07-11T01:18:41
; FORMAT={-:-/ absolute / metric / decimal}
; #@! TF.CreationDate,2026-07-11T01:18:41+02:00
; #@! TF.GenerationSoftware,Kicad,Pcbnew,10.0.4
; #@! TF.FileFunction,Plated,1,2,PTH
FMAT,2
METRIC
; #@! TA.AperFunction,Plated,PTH,ComponentDrill
T1C1.000
; #@! TA.AperFunction,Plated,PTH,ComponentDrill
T2C1.500
; #@! TA.AperFunction,Plated,PTH,ComponentDrill
T3C2.000
; #@! TA.AperFunction,Plated,PTH,ComponentDrill
T4C3.200
%
G90
G05
T1
X108.486Y-78.092
X108.486Y-80.632
X108.486Y-83.172
X108.486Y-85.712
X108.486Y-88.252
X108.486Y-90.792
X108.486Y-93.332
X123.735Y-78.092
X123.735Y-80.632
X123.735Y-83.172
X123.735Y-85.712
X123.735Y-88.252
X123.735Y-90.792
X123.735Y-93.332
X127.25Y-65.0
X127.25Y-67.5
X127.25Y-70.0
X141.75Y-65.0
X141.75Y-70.0
T2
X112.69Y-82.46
X112.69Y-101.5
X112.69Y-120.46
X119.04Y-79.92
X119.04Y-98.96
X119.04Y-117.92
X131.75Y-82.46
X131.75Y-101.5
X131.75Y-120.46
X138.1Y-79.92
X138.1Y-98.96
X138.1Y-117.92
T4
X109.0Y-71.0
X109.0Y-137.0
X143.5Y-137.0
T3
G00X134.5Y-61.9
M15
G01X135.0Y-61.9
M16
G05
G00X134.5Y-73.1
M15
G01X135.0Y-73.1
M16
G05
M30
