%TF.GenerationSoftware,KiCad,Pcbnew,10.0.4*%
%TF.CreationDate,2026-07-11T01:13:56+02:00*%
%TF.ProjectId,Macropad,4d616372-6f70-4616-942e-6b696361645f,rev?*%
%TF.SameCoordinates,Original*%
%TF.FileFunction,Copper,L2,Bot*%
%TF.FilePolarity,Positive*%
%FSLAX46Y46*%
G04 Gerber Fmt 4.6, Leading zero omitted, Abs format (unit mm)*
G04 Created by KiCad (PCBNEW 10.0.4) date 2026-07-11 01:13:56*
%MOMM*%
%LPD*%
G01*
G04 APERTURE LIST*
%TA.AperFunction,ComponentPad*%
%ADD10C,2.200000*%
%TD*%
%TA.AperFunction,ComponentPad*%
%ADD11C,6.400000*%
%TD*%
%TA.AperFunction,ComponentPad*%
%ADD12R,2.000000X2.000000*%
%TD*%
%TA.AperFunction,ComponentPad*%
%ADD13C,2.000000*%
%TD*%
%TA.AperFunction,ComponentPad*%
%ADD14R,3.000000X2.500000*%
%TD*%
%TA.AperFunction,ComponentPad*%
%ADD15R,3.500000X1.700000*%
%TD*%
%TA.AperFunction,ComponentPad*%
%ADD16O,3.600000X1.700000*%
%TD*%
%TA.AperFunction,ComponentPad*%
%ADD17O,3.700000X1.700000*%
%TD*%
%TA.AperFunction,Conductor*%
%ADD18C,0.200000*%
%TD*%
G04 APERTURE END LIST*
D10*
%TO.P,SW6,1,1_1*%
%TO.N,GND*%
X119040000Y-117920000D03*
%TO.P,SW6,2,2_2*%
%TO.N,Net-(U1-PA9_A5_D5_SCL)*%
X112690000Y-120460000D03*
%TD*%
D11*
%TO.P,H2,1,1_1*%
%TO.N,GND*%
X109000000Y-137000000D03*
%TD*%
D10*
%TO.P,SW2,1,1_1*%
%TO.N,Net-(U1-PA5_A9_D9_MISO)*%
X119040000Y-98960000D03*
%TO.P,SW2,2,2_2*%
%TO.N,GND*%
X112690000Y-101500000D03*
%TD*%
%TO.P,SW3,1,1_1*%
%TO.N,Net-(U1-PA7_A8_D8_SCK)*%
X138100000Y-79920000D03*
%TO.P,SW3,2,2_2*%
%TO.N,GND*%
X131750000Y-82460000D03*
%TD*%
%TO.P,SW1,1,1_1*%
%TO.N,Net-(U1-PA6_A10_D10_MOSI)*%
X119040000Y-79920000D03*
%TO.P,SW1,2,2_2*%
%TO.N,GND*%
X112690000Y-82460000D03*
%TD*%
%TO.P,SW5,1,1_1*%
%TO.N,GND*%
X138100000Y-98960000D03*
%TO.P,SW5,2,2_2*%
%TO.N,Net-(U1-PA8_A4_D4_SDA)*%
X131750000Y-101500000D03*
%TD*%
D12*
%TO.P,SW4,A,A_A*%
%TO.N,Net-(U1-PA4_A1_D1)*%
X127250000Y-65000000D03*
D13*
%TO.P,SW4,B,B_B*%
%TO.N,Net-(U1-PA02_A0_D0)*%
X127250000Y-70000000D03*
%TO.P,SW4,C,C_C*%
%TO.N,GND*%
X127250000Y-67500000D03*
D14*
%TO.P,SW4,MP*%
%TO.N,N/C*%
X134750000Y-61900000D03*
X134750000Y-73100000D03*
D13*
%TO.P,SW4,S1,S1_S1*%
%TO.N,Net-(U1-PA10_A2_D2)*%
X141750000Y-65000000D03*
%TO.P,SW4,S2,S2_S2*%
%TO.N,GND*%
X141750000Y-70000000D03*
%TD*%
D10*
%TO.P,SW7,1,1_1*%
%TO.N,Net-(U1-PB09_A7_D7_RX)*%
X138100000Y-117920000D03*
%TO.P,SW7,2,2_2*%
%TO.N,GND*%
X131750000Y-120460000D03*
%TD*%
D11*
%TO.P,H1,1,1_1*%
%TO.N,GND*%
X109000000Y-71000000D03*
%TD*%
%TO.P,H3,1,1_1*%
%TO.N,GND*%
X143500000Y-137000000D03*
%TD*%
D15*
%TO.P,U1,1,PA02_A0_D0_1*%
%TO.N,Net-(U1-PA02_A0_D0)*%
X124735500Y-78092015D03*
D16*
%TO.P,U1,2,PA4_A1_D1_2*%
%TO.N,Net-(U1-PA4_A1_D1)*%
X124735500Y-80632015D03*
%TO.P,U1,3,PA10_A2_D2_3*%
%TO.N,Net-(U1-PA10_A2_D2)*%
X124735500Y-83172015D03*
%TO.P,U1,4,PA11_A3_D3_4*%
%TO.N,unconnected-(U1-PA11_A3_D3-Pad4)*%
X124735500Y-85712015D03*
%TO.P,U1,5,PA8_A4_D4_SDA_5*%
%TO.N,Net-(U1-PA8_A4_D4_SDA)*%
X124735500Y-88252015D03*
%TO.P,U1,6,PA9_A5_D5_SCL_6*%
%TO.N,Net-(U1-PA9_A5_D5_SCL)*%
X124735500Y-90792015D03*
%TO.P,U1,7,PB08_A6_D6_TX_7*%
%TO.N,unconnected-(U1-PB08_A6_D6_TX-Pad7)*%
X124735500Y-93332015D03*
%TO.P,U1,8,PB09_A7_D7_RX_8*%
%TO.N,Net-(U1-PB09_A7_D7_RX)*%
X107485500Y-93332015D03*
%TO.P,U1,9,PA7_A8_D8_SCK_9*%
%TO.N,Net-(U1-PA7_A8_D8_SCK)*%
X107485500Y-90792015D03*
%TO.P,U1,10,PA5_A9_D9_MISO_10*%
%TO.N,Net-(U1-PA5_A9_D9_MISO)*%
X107485500Y-88252015D03*
D17*
%TO.P,U1,11,PA6_A10_D10_MOSI_11*%
%TO.N,Net-(U1-PA6_A10_D10_MOSI)*%
X107485500Y-85712015D03*
%TO.P,U1,12,3V3_12*%
%TO.N,unconnected-(U1-3V3-Pad12)*%
X107485500Y-83172015D03*
%TO.P,U1,13,GND_13*%
%TO.N,GND*%
X107485500Y-80632015D03*
%TO.P,U1,14,5V_14*%
%TO.N,unconnected-(U1-5V-Pad14)*%
X107485500Y-78092015D03*
%TD*%
%TO.N,*%
D18*
X111000000Y-82000000D02*
X111290000Y-82000000D01*
X111290000Y-82000000D02*
X111290000Y-82460000D01*
%TO.N,GND*%
X110862015Y-80632015D02*
X108485500Y-80632015D01*
X112690000Y-82460000D02*
X110862015Y-80632015D01*
%TO.N,Net-(U1-PA9_A5_D5_SCL)*%
X126835500Y-106314500D02*
X112690000Y-120460000D01*
X124771846Y-90792015D02*
X126835500Y-92855669D01*
X123735500Y-90792015D02*
X124771846Y-90792015D01*
X126835500Y-92855669D02*
X126835500Y-106314500D01*
%TO.N,Net-(U1-PA5_A9_D9_MISO)*%
X119040000Y-98960000D02*
X108485500Y-88405500D01*
X108485500Y-88405500D02*
X108485500Y-88252015D01*
%TO.N,Net-(U1-PA7_A8_D8_SCK)*%
X118480101Y-78500000D02*
X121943485Y-78500000D01*
X107449154Y-90792015D02*
X105335500Y-88678361D01*
X105335500Y-88678361D02*
X105335500Y-80155669D01*
X121943485Y-78500000D02*
X122685500Y-79242015D01*
X106009154Y-79482015D02*
X117498086Y-79482015D01*
X105335500Y-80155669D02*
X106009154Y-79482015D01*
X108485500Y-90792015D02*
X107449154Y-90792015D01*
X117498086Y-79482015D02*
X118480101Y-78500000D01*
X122685500Y-79242015D02*
X137422015Y-79242015D01*
X137422015Y-79242015D02*
X138100000Y-79920000D01*
%TO.N,Net-(U1-PA6_A10_D10_MOSI)*%
X110397515Y-83800000D02*
X108485500Y-85712015D01*
X117484366Y-79920000D02*
X113462894Y-83941472D01*
X113462894Y-83941472D02*
X112058528Y-83941472D01*
X111917056Y-83800000D02*
X110397515Y-83800000D01*
X112058528Y-83941472D02*
X111917056Y-83800000D01*
X119040000Y-79920000D02*
X117484366Y-79920000D01*
%TO.N,Net-(U1-PA8_A4_D4_SDA)*%
X123735500Y-88252015D02*
X124771846Y-88252015D01*
X124771846Y-88252015D02*
X131750000Y-95230169D01*
X131750000Y-95230169D02*
X131750000Y-101500000D01*
%TO.N,Net-(U1-PA4_A1_D1)*%
X132950000Y-74650000D02*
X132950000Y-70700000D01*
X134809899Y-74650000D02*
X132950000Y-74650000D01*
X137520101Y-81320000D02*
X138679899Y-81320000D01*
X132950000Y-70700000D02*
X127250000Y-65000000D01*
X139500000Y-79340101D02*
X134809899Y-74650000D01*
X123735500Y-80632015D02*
X136832116Y-80632015D01*
X139500000Y-80499899D02*
X139500000Y-79340101D01*
X136832116Y-80632015D02*
X137520101Y-81320000D01*
X138679899Y-81320000D02*
X139500000Y-80499899D01*
%TO.N,Net-(U1-PA02_A0_D0)*%
X127250000Y-70000000D02*
X123735500Y-73514500D01*
X123735500Y-73514500D02*
X123735500Y-78092015D01*
%TO.N,Net-(U1-PA10_A2_D2)*%
X126911846Y-81032015D02*
X124771846Y-83172015D01*
X139900000Y-66850000D02*
X139900000Y-80665585D01*
X133187985Y-81720000D02*
X132500000Y-81032015D01*
X132500000Y-81032015D02*
X126911846Y-81032015D01*
X141750000Y-65000000D02*
X139900000Y-66850000D01*
X124771846Y-83172015D02*
X123735500Y-83172015D01*
X139900000Y-80665585D02*
X138845584Y-81720000D01*
X138845584Y-81720000D02*
X133187985Y-81720000D01*
%TO.N,Net-(U1-PB09_A7_D7_RX)*%
X123158613Y-87102015D02*
X120440000Y-89820628D01*
X138100000Y-108400000D02*
X139000000Y-107500000D01*
X119619899Y-100360000D02*
X115513485Y-100360000D01*
X126161846Y-87102015D02*
X123158613Y-87102015D01*
X139000000Y-101839899D02*
X126835500Y-89675399D01*
X138100000Y-117920000D02*
X138100000Y-108400000D01*
X120440000Y-89820628D02*
X120440000Y-99539899D01*
X126835500Y-89675399D02*
X126835500Y-87775669D01*
X120440000Y-99539899D02*
X119619899Y-100360000D01*
X115513485Y-100360000D02*
X108485500Y-93332015D01*
X126835500Y-87775669D02*
X126161846Y-87102015D01*
X139000000Y-107500000D02*
X139000000Y-101839899D01*
%TD*%
M02*
