%TF.GenerationSoftware,KiCad,Pcbnew,10.0.4*%
%TF.CreationDate,2026-07-11T01:13:57+02:00*%
%TF.ProjectId,Macropad,4d616372-6f70-4616-942e-6b696361645f,rev?*%
%TF.SameCoordinates,Original*%
%TF.FileFunction,Soldermask,Bot*%
%TF.FilePolarity,Negative*%
%FSLAX46Y46*%
G04 Gerber Fmt 4.6, Leading zero omitted, Abs format (unit mm)*
G04 Created by KiCad (PCBNEW 10.0.4) date 2026-07-11 01:13:57*
%MOMM*%
%LPD*%
G01*
G04 APERTURE LIST*
%ADD10C,2.200000*%
%ADD11C,1.700000*%
%ADD12C,4.000000*%
%ADD13C,6.400000*%
%ADD14R,2.000000X2.000000*%
%ADD15C,2.000000*%
%ADD16R,3.000000X2.500000*%
%ADD17R,3.500000X1.700000*%
%ADD18O,3.600000X1.700000*%
%ADD19O,3.700000X1.700000*%
G04 APERTURE END LIST*
D10*
%TO.C,H4*%
X146500000Y-71000000D03*
%TD*%
D11*
%TO.C,SW6*%
X111420000Y-123000000D03*
D12*
X116500000Y-123000000D03*
D11*
X121580000Y-123000000D03*
D10*
X119040000Y-117920000D03*
X112690000Y-120460000D03*
%TD*%
D13*
%TO.C,H2*%
X109000000Y-137000000D03*
%TD*%
D11*
%TO.C,SW2*%
X111420000Y-104040000D03*
D12*
X116500000Y-104040000D03*
D11*
X121580000Y-104040000D03*
D10*
X119040000Y-98960000D03*
X112690000Y-101500000D03*
%TD*%
D11*
%TO.C,SW3*%
X130480000Y-85000000D03*
D12*
X135560000Y-85000000D03*
D11*
X140640000Y-85000000D03*
D10*
X138100000Y-79920000D03*
X131750000Y-82460000D03*
%TD*%
D11*
%TO.C,SW1*%
X111420000Y-85000000D03*
D12*
X116500000Y-85000000D03*
D11*
X121580000Y-85000000D03*
D10*
X119040000Y-79920000D03*
X112690000Y-82460000D03*
%TD*%
D11*
%TO.C,SW5*%
X130480000Y-104040000D03*
D12*
X135560000Y-104040000D03*
D11*
X140640000Y-104040000D03*
D10*
X138100000Y-98960000D03*
X131750000Y-101500000D03*
%TD*%
D14*
%TO.C,SW4*%
X127250000Y-65000000D03*
D15*
X127250000Y-70000000D03*
X127250000Y-67500000D03*
D16*
X134750000Y-61900000D03*
X134750000Y-73100000D03*
D15*
X141750000Y-65000000D03*
X141750000Y-70000000D03*
%TD*%
D11*
%TO.C,SW7*%
X130480000Y-123000000D03*
D12*
X135560000Y-123000000D03*
D11*
X140640000Y-123000000D03*
D10*
X138100000Y-117920000D03*
X131750000Y-120460000D03*
%TD*%
D13*
%TO.C,H1*%
X109000000Y-71000000D03*
%TD*%
%TO.C,H3*%
X143500000Y-137000000D03*
%TD*%
D17*
%TO.C,U1*%
X124735500Y-78092015D03*
D18*
X124735500Y-80632015D03*
X124735500Y-83172015D03*
X124735500Y-85712015D03*
X124735500Y-88252015D03*
X124735500Y-90792015D03*
X124735500Y-93332015D03*
X107485500Y-93332015D03*
X107485500Y-90792015D03*
X107485500Y-88252015D03*
D19*
X107485500Y-85712015D03*
X107485500Y-83172015D03*
X107485500Y-80632015D03*
X107485500Y-78092015D03*
%TD*%
M02*
